<svg width="20" height="17" viewBox="0 0 20 17" fill="none" xmlns="http://www.w3.org/2000/svg">
<g id="Group 438">
<path id="Rectangle 4318" d="M6.845 1.29C6.9111 1.20187 7.01484 1.15 7.125 1.15H18.625C18.8183 1.15 18.975 1.3067 18.975 1.5V15.5C18.975 15.6933 18.8183 15.85 18.625 15.85H7.125C7.01484 15.85 6.9111 15.7981 6.845 15.71L1.595 8.71C1.50167 8.58556 1.50167 8.41444 1.595 8.29L6.845 1.29Z" fill="white" stroke="#191919" stroke-width="1.3"/>
<path id="Vector" d="M12.125 7.61125L14.7919 4.94437C15.0373 4.69895 15.4352 4.69895 15.6806 4.94437C15.926 5.1898 15.926 5.5877 15.6806 5.83312L13.0137 8.5L15.6806 11.1669C15.926 11.4123 15.926 11.8102 15.6806 12.0556C15.4352 12.301 15.0373 12.301 14.7919 12.0556L12.125 9.38875L9.45812 12.0556C9.2127 12.301 8.8148 12.301 8.56937 12.0556C8.32395 11.8102 8.32395 11.4123 8.56937 11.1669L11.2363 8.5L8.56937 5.83312C8.32395 5.5877 8.32395 5.1898 8.56937 4.94437C8.8148 4.69895 9.2127 4.69895 9.45812 4.94437L12.125 7.61125Z" fill="#191919"/>
</g>
</svg>
