<svg width="24" height="24" viewBox="0 0 24 24" fill="none" xmlns="http://www.w3.org/2000/svg">
<path d="M12.9 18.9997V19.0997H13H19H19.1V18.9997V9.97791V9.929L19.0614 9.89897L12.0614 4.45452L12 4.40677L11.9386 4.45452L4.93861 9.89897L4.9 9.929V9.97791V18.9997V19.0997H5H11H11.1V18.9997V13.0997H12.9V18.9997ZM12.5525 2.55618L12.6136 2.4776L12.5525 2.55618L20.5525 8.7784L20.6139 8.69947L20.5525 8.7784C20.7718 8.94892 20.9 9.21109 20.9 9.48882V19.9997C20.9 20.4968 20.4971 20.8997 20 20.8997H4C3.50295 20.8997 3.1 20.4968 3.1 19.9997V9.48882C3.1 9.21109 3.22822 8.94892 3.44745 8.7784L11.4475 2.55618C11.7725 2.30341 12.2275 2.30341 12.5525 2.55618Z" fill="white" stroke="white" stroke-width="0.2"/>
</svg>
