<svg width="16" height="17" viewBox="0 0 16 17" fill="none" xmlns="http://www.w3.org/2000/svg">
<g id="Frame">
<path id="Vector" d="M7.99996 2.16675C4.46663 2.16675 0.666626 2.93341 0.666626 4.66675V6.33342C0.666626 7.96675 4.13329 8.76675 7.49996 8.83342V11.8334C5.83329 11.9001 4.09996 12.3001 4.09996 13.3334C4.09996 14.4334 6.19996 14.8334 8.03329 14.8334C9.86663 14.8334 11.9666 14.4334 11.9666 13.3334C11.9666 12.3334 10.2333 11.9001 8.56663 11.8334V7.83342H8.06663C3.89996 7.83342 1.73329 6.76675 1.73329 6.33342V6.00008C3.03329 6.80008 5.56663 7.16675 7.99996 7.16675C10.4333 7.16675 12.9666 6.80008 14.3333 6.00008V6.33342C14.3333 6.73342 12.7333 7.53342 9.66663 7.76675V8.76675C12.6333 8.56675 15.3333 7.76675 15.3333 6.33342V4.66675C15.3333 2.93341 11.5333 2.16675 7.99996 2.16675ZM8.49996 13.1667V12.8334C9.73329 12.9001 10.5666 13.1334 10.8333 13.3334C10.5 13.5334 9.53329 13.8334 7.99996 13.8334C6.46663 13.8334 5.46663 13.5334 5.16663 13.3334C5.46663 13.1667 6.26663 12.9001 7.49996 12.8334V13.1667H8.49996ZM7.99996 6.16675C3.83329 6.16675 1.66663 5.10008 1.66663 4.66675C1.66663 4.23341 3.83329 3.16675 7.99996 3.16675C12.1666 3.16675 14.3333 4.23341 14.3333 4.66675C14.3333 5.10008 12.1666 6.16675 7.99996 6.16675Z" fill="#999999"/>
</g>
</svg>
