<svg width="27" height="26" viewBox="0 0 27 26" fill="none" xmlns="http://www.w3.org/2000/svg">
<g id="Frame">
<path id="Vector" d="M18.6274 9.48272C17.9408 6.17067 14.5467 3.70937 10.5293 3.70937C6.02951 3.70937 2.30508 6.80162 2.30508 10.7148L2.30508 10.7157L2.30543 10.7791L2.30545 10.7806L2.30636 10.8396L2.30638 10.8403C2.34707 12.8088 3.34266 14.621 4.99574 15.9004L4.25227 18.1376L4.24755 18.1518L4.24573 18.1667L4.23321 18.2688L4.23137 18.2839L4.23257 18.299L4.23663 18.35L4.23678 18.3517L4.23766 18.3615L4.23778 18.3626C4.25031 18.4896 4.29938 18.6102 4.37904 18.7099C4.4587 18.8096 4.56554 18.8841 4.68663 18.9243L4.6881 18.9248L4.69902 18.9283L4.69901 18.9283L4.7024 18.9293L4.71368 18.9327L4.71368 18.9327L4.71535 18.9332C4.88134 18.9801 5.0591 18.9601 5.2106 18.8777C5.2106 18.8777 5.21061 18.8777 5.21061 18.8777L7.97105 17.3753L7.98764 17.3799L7.98796 17.38C8.80171 17.6046 9.65666 17.7203 10.5293 17.7203L18.6274 9.48272ZM18.6274 9.48272C22.0258 9.89638 24.6949 12.3937 24.6949 15.4883C24.6949 17.2481 23.82 18.8707 22.3524 20.0018L22.6966 21.4659C22.7783 21.8135 22.5691 22.1614 22.2271 22.2543L22.2256 22.2547L22.217 22.2569L22.2148 22.2575L22.2148 22.2575L22.2062 22.2596L22.2049 22.2599C22.0862 22.2878 21.9621 22.2823 21.8464 22.244L21.8448 22.2435L21.8332 22.2395L21.8313 22.2388L21.8313 22.2388L19.388 21.3646L19.3808 21.3662L19.3803 21.3663C18.8397 21.4846 18.2816 21.5479 17.7147 21.5538L17.7143 21.5538L17.6691 21.5542L17.6683 21.5542L17.6264 21.5543H17.626C14.6544 21.5543 12.0799 19.9772 11.0427 17.7068C10.8717 17.7158 10.7005 17.7204 10.5293 17.7203L18.6274 9.48272ZM10.557 15.4882C10.5569 15.7953 10.5836 16.1018 10.6366 16.404C10.6009 16.4045 10.5651 16.4047 10.5293 16.4047C9.68511 16.4047 8.86299 16.2797 8.09134 16.0394L7.88626 15.9755L7.82568 15.9566L7.76994 15.987L6.0406 16.9281L6.51723 15.4941L6.55301 15.3864L6.45915 15.3227L6.14201 15.1073L6.14141 15.1069L6.09375 15.0742C6.09372 15.0742 6.09368 15.0741 6.09364 15.0741C4.52684 13.9907 3.6207 12.4052 3.6207 10.7148C3.6207 7.61891 6.66876 5.025 10.5293 5.025C13.8378 5.025 16.5568 6.93451 17.2599 9.43029C13.5626 9.59261 10.557 12.2032 10.557 15.4882ZM10.557 15.4882L10.707 15.4883M10.557 15.4882L10.707 15.4883M10.707 15.4883C10.7069 15.7944 10.7342 16.0997 10.7884 16.4008L10.707 15.4883ZM20.8907 19.5331L21.1401 20.5942L19.5049 20.0092L19.4624 19.994L19.4185 20.0048L19.2703 20.0413L19.27 20.0414L19.2339 20.0502C19.2338 20.0502 19.2338 20.0502 19.2337 20.0502C18.7163 20.1747 18.1767 20.2387 17.626 20.2387C14.4046 20.2387 11.8727 18.0666 11.8727 15.4883C11.8727 12.91 14.4046 10.7379 17.626 10.7379C20.8474 10.7379 23.3793 12.91 23.3793 15.4883C23.3793 16.9244 22.5969 18.2722 21.2452 19.1784L20.9532 19.3741L20.8669 19.432L20.8907 19.5331ZM16.6461 13.8125C16.6461 13.2809 16.2152 12.85 15.6836 12.85C15.152 12.85 14.7211 13.2809 14.7211 13.8125C14.7211 14.3441 15.152 14.775 15.6836 14.775C16.2152 14.775 16.6461 14.3441 16.6461 13.8125ZM20.734 13.8125C20.734 13.2809 20.3031 12.85 19.7715 12.85C19.2399 12.85 18.809 13.2809 18.809 13.8125C18.809 14.3441 19.2399 14.775 19.7715 14.775C20.3031 14.775 20.734 14.3441 20.734 13.8125ZM8.97813 8.60742C8.97813 7.96367 8.45625 7.4418 7.8125 7.4418C7.16875 7.4418 6.64687 7.96367 6.64687 8.60742C6.64687 9.25117 7.16875 9.77305 7.8125 9.77305C8.45625 9.77305 8.97813 9.25117 8.97813 8.60742ZM14.234 8.60742C14.234 7.96367 13.7121 7.4418 13.0684 7.4418C12.4246 7.4418 11.9027 7.96367 11.9027 8.60742C11.9027 9.25117 12.4246 9.77305 13.0684 9.77305C13.7121 9.77305 14.234 9.25117 14.234 8.60742Z" fill="white" stroke="white" stroke-width="0.3"/>
</g>
</svg>
